<svg width="258" height="62" viewBox="0 0 258 62" fill="none" xmlns="http://www.w3.org/2000/svg">
<path d="M31.3237 61.1992C47.8923 61.1992 61.3237 47.7678 61.3237 31.1992C61.3237 14.6307 47.8923 1.19925 31.3237 1.19925C14.7552 1.19925 1.32373 14.6307 1.32373 31.1992C1.32373 47.7678 14.7552 61.1992 31.3237 61.1992Z" stroke="#A42F2C" stroke-width="1.43"/>
<path d="M31.3234 53.5593C43.6725 53.5593 53.6834 43.5484 53.6834 31.1993C53.6834 18.8502 43.6725 8.83926 31.3234 8.83926C18.9743 8.83926 8.96338 18.8502 8.96338 31.1993C8.96338 43.5484 18.9743 53.5593 31.3234 53.5593Z" stroke="#A42F2C" stroke-width="1.43"/>
<path d="M45.2435 35.6992C45.2435 32.5292 45.2435 16.3692 45.2435 16.3692H17.3735C17.3735 16.3692 17.3735 32.1792 17.3735 35.3692C17.3735 45.9892 31.3735 51.9792 31.3735 51.9792C31.3735 51.9792 45.2435 45.8692 45.2435 35.6992Z" stroke="#A42F2C" stroke-width="1.43"/>
<path d="M24.8635 26.3693C24.8635 26.3693 23.3335 25.4693 22.3335 24.7993C22.0699 24.6828 21.8401 24.5017 21.6653 24.2727C21.4904 24.0437 21.3763 23.7742 21.3335 23.4893C21.3335 23.3593 21.3335 18.4893 21.3335 18.4893H28.4835C28.4835 18.4893 28.4835 23.3393 28.4835 23.4893C28.4634 23.7746 28.3638 24.0486 28.1959 24.2801C28.0279 24.5117 27.7985 24.6915 27.5335 24.7993C26.5135 25.4693 24.8635 26.3693 24.8635 26.3693Z" stroke="#A42F2C" stroke-width="1.43"/>
<path d="M38.1335 26.3293C38.1335 26.3293 36.6035 25.4293 35.6035 24.7593C35.3405 24.6421 35.1111 24.4607 34.9364 24.2318C34.7617 24.0029 34.6472 23.7339 34.6035 23.4492C34.6035 23.3192 34.6035 18.4492 34.6035 18.4492H41.7535C41.7535 18.4492 41.7535 23.2992 41.7535 23.4492C41.7334 23.7346 41.6338 24.0086 41.4659 24.2401C41.298 24.4717 41.0685 24.6515 40.8035 24.7593C39.7835 25.4393 38.1335 26.3293 38.1335 26.3293Z" stroke="#A42F2C" stroke-width="1.43"/>
<path d="M16.7534 28.3992H45.4534" stroke="#A42F2C" stroke-width="1.42"/>
<path d="M31.1535 32.1993C31.2673 32.0342 31.4157 31.8959 31.5884 31.794C31.7611 31.6921 31.9539 31.629 32.1535 31.6093C32.6686 31.5201 33.1937 31.5033 33.7135 31.5593C34.9335 31.6693 35.9235 31.8093 36.7135 31.8293C37.7935 31.8293 38.5035 31.8293 39.0235 31.8293V43.8993C39.0235 43.8993 38.2235 43.8993 37.2035 43.8993C35.1235 43.8993 34.3335 43.6293 32.6935 43.6393C31.6935 43.6393 31.6335 44.4292 31.2635 44.4292C30.8935 44.4292 30.8535 43.6493 29.8935 43.6393C28.2535 43.6393 27.4735 43.8493 25.3835 43.8993C24.3835 43.8993 23.5635 43.8993 23.5635 43.8993V31.8393C24.0835 31.8393 24.7935 31.8393 25.8735 31.8393C26.6835 31.8393 27.6635 31.6792 28.8735 31.5692C29.4036 31.5137 29.939 31.5339 30.4635 31.6293C30.8638 31.7004 31.2217 31.9223 31.4635 32.2492" stroke="#A42F2C" stroke-width="1.43"/>
<path d="M21.3135 21.1892H28.4035" stroke="#A42F2C" stroke-width="1.19"/>
<path d="M21.3135 21.1892H28.4035" stroke="#A42F2C" stroke-width="1.43"/>
<path d="M31.2637 27.9492V52.0792" stroke="#A42F2C" stroke-width="1.19"/>
<path d="M31.2637 27.9492V52.0792" stroke="#A42F2C" stroke-width="1.08"/>
<path d="M41.5034 22.6893L38.0034 20.3593L34.7734 22.6893" stroke="#A42F2C" stroke-width="1.19"/>
<path d="M41.6035 22.6893L38.1035 20.3593L34.8735 22.6893" stroke="#A42F2C" stroke-width="1.43"/>
<path d="M33.2437 34.1292H33.6137C34.2537 34.1892 34.7737 34.2592 35.1937 34.2692H37.0037" stroke="#A42F2C" stroke-width="0.75"/>
<path d="M33.2437 36.4292H33.6137C34.2437 36.4992 34.7537 36.5592 35.1737 36.5592H36.9837" stroke="#A42F2C" stroke-width="0.75"/>
<path d="M33.2437 38.7393H33.6137C34.2537 38.7993 34.7737 38.8693 35.1937 38.8793H37.0037" stroke="#A42F2C" stroke-width="0.75"/>
<path d="M33.2437 41.0392H33.6137C34.2537 41.0992 34.7737 41.1692 35.1937 41.1792H37.0037" stroke="#A42F2C" stroke-width="0.75"/>
<path d="M29.3433 34.1093H29.0033C28.3633 34.1693 27.8433 34.2393 27.4233 34.2493H25.6133" stroke="#A42F2C" stroke-width="0.75"/>
<path d="M29.3433 36.4193H29.0033C28.3633 36.4893 27.8433 36.5592 27.4233 36.5592H25.6133" stroke="#A42F2C" stroke-width="0.75"/>
<path d="M29.3433 38.7192H29.0033C28.3633 38.7792 27.8433 38.8492 27.4233 38.8592H25.6133" stroke="#A42F2C" stroke-width="0.75"/>
<path d="M29.3433 41.0193H29.0033C28.3633 41.0793 27.8433 41.1493 27.4233 41.1593H25.6133" stroke="#A42F2C" stroke-width="0.75"/>
<path d="M23.0234 33.0492H21.4634V34.7692H23.0234V33.0492Z" fill="#A42F2C"/>
<path d="M23.1134 37.0092H21.4634V38.7292H23.1134V37.0092Z" fill="#A42F2C"/>
<path d="M23.0234 40.5592H21.4634V42.2692H23.0234V40.5592Z" fill="#A42F2C"/>
<path d="M41.0034 33.3893H39.4434V35.0993H41.0034V33.3893Z" fill="#A42F2C"/>
<path d="M41.0934 37.3492H39.4434V39.0692H41.0934V37.3492Z" fill="#A42F2C"/>
<path d="M41.0034 40.8992H39.4434V42.6092H41.0034V40.8992Z" fill="#A42F2C"/>
<path d="M7.24358 28.2492C7.30324 28.5588 7.32673 28.8743 7.31358 29.1892C7.32973 29.4788 7.28272 29.7684 7.17579 30.038C7.06887 30.3076 6.90459 30.5507 6.69436 30.7505C6.48412 30.9502 6.23295 31.1019 5.95826 31.1949C5.68358 31.288 5.39194 31.3201 5.10358 31.2892C4.8009 31.3052 4.49856 31.2521 4.21941 31.134C3.94025 31.0159 3.69159 30.8359 3.4922 30.6077C3.29281 30.3794 3.14792 30.1088 3.06847 29.8163C2.98902 29.5238 2.97709 29.217 3.03358 28.9192C3.05039 28.606 3.12145 28.2981 3.24358 28.0092L3.94358 28.1092C3.77372 28.3682 3.68016 28.6697 3.67358 28.9792C3.66093 29.17 3.68834 29.3613 3.75405 29.5408C3.81975 29.7203 3.92231 29.8841 4.05511 30.0216C4.18792 30.1592 4.34803 30.2673 4.52516 30.3393C4.70228 30.4112 4.8925 30.4452 5.08358 30.4392C5.27267 30.4691 5.46596 30.4584 5.65061 30.4079C5.83526 30.3574 6.00705 30.2682 6.15459 30.1462C6.30212 30.0242 6.42202 29.8722 6.50632 29.7003C6.59063 29.5284 6.63742 29.3406 6.64358 29.1492C6.66544 28.8442 6.6246 28.5379 6.52358 28.2492H7.24358Z" fill="#A42F2C"/>
<path d="M3.9834 23.7392C4.04682 23.4696 4.16784 23.2168 4.33817 22.9983C4.5085 22.7798 4.72409 22.6007 4.97015 22.4734C5.21621 22.3461 5.48691 22.2736 5.76365 22.2608C6.0404 22.248 6.31664 22.2952 6.5734 22.3992C6.8262 22.4708 7.06242 22.5915 7.26858 22.7543C7.47474 22.9172 7.64681 23.1191 7.77496 23.3484C7.9031 23.5778 7.98481 23.8301 8.01543 24.0911C8.04605 24.352 8.02497 24.6164 7.9534 24.8692C7.88183 25.122 7.76117 25.3583 7.59831 25.5644C7.43545 25.7706 7.23357 25.9426 7.00421 26.0708C6.77485 26.1989 6.52249 26.2806 6.26155 26.3113C6.00061 26.3419 5.7362 26.3208 5.4834 26.2492C5.20836 26.2047 4.94639 26.1006 4.71586 25.9442C4.48532 25.7877 4.2918 25.5827 4.14888 25.3436C4.00596 25.1044 3.91708 24.8369 3.8885 24.5597C3.85991 24.2826 3.8923 24.0025 3.9834 23.7392ZM7.4734 24.7392C7.50932 24.5641 7.50785 24.3833 7.4691 24.2088C7.43034 24.0343 7.35517 23.8699 7.2485 23.7264C7.14184 23.5829 7.00607 23.4636 6.8501 23.3762C6.69413 23.2888 6.52147 23.2353 6.3434 23.2192C6.18814 23.1291 6.01436 23.0756 5.8353 23.0628C5.65625 23.05 5.47663 23.0783 5.31013 23.1454C5.14362 23.2124 4.99462 23.3166 4.87446 23.45C4.7543 23.5834 4.66616 23.7424 4.61674 23.915C4.56732 24.0876 4.55793 24.2691 4.58928 24.4459C4.62062 24.6227 4.69189 24.7899 4.79764 24.935C4.90339 25.08 5.04085 25.1991 5.19954 25.283C5.35823 25.3669 5.53398 25.4135 5.7134 25.4192C5.87274 25.4993 6.04715 25.545 6.2253 25.5532C6.40344 25.5614 6.58132 25.532 6.74735 25.4669C6.91338 25.4018 7.06384 25.3025 7.18894 25.1754C7.31403 25.0483 7.41096 24.8963 7.4734 24.7292V24.7392Z" fill="#A42F2C"/>
<path d="M5.62354 19.4592L6.04354 18.6792C6.45354 17.9092 6.92353 16.9692 7.93353 17.5092C8.14404 17.6151 8.30711 17.7962 8.39045 18.0165C8.47379 18.2369 8.47132 18.4806 8.38354 18.6992C8.46114 18.6265 8.55641 18.5753 8.65991 18.5507C8.7634 18.5262 8.87152 18.5291 8.97353 18.5592L10.7035 18.7392L10.2435 19.5592L8.87354 19.3892C8.74876 19.3469 8.61244 19.3545 8.49314 19.4104C8.37383 19.4663 8.2808 19.5662 8.23353 19.6892L8.11353 19.9192L9.63354 20.7292L9.24354 21.4092L5.62354 19.4592ZM7.56353 19.5592L7.69353 19.3192C7.88353 18.9592 8.04354 18.5292 7.59354 18.3192C7.14354 18.1092 6.90354 18.4692 6.71354 18.8292L6.58354 19.0692L7.56353 19.5592Z" fill="#A42F2C"/>
<path d="M8.42334 14.7392L9.06334 13.9692L12.4333 14.7492L10.0533 12.7492L10.5533 12.1492L13.7433 14.7892L13.1133 15.5592L9.73334 14.7892L12.1133 16.7892L11.6133 17.3892L8.42334 14.7392Z" fill="#A42F2C"/>
<path d="M12.5635 10.2392L14.4335 8.71924L14.8435 9.22924L13.6135 10.2292L14.2435 11.0192L15.3735 10.0992L15.7935 10.5592L14.6635 11.5592L15.3935 12.4592L16.6335 11.4592L17.0435 11.9692L15.1635 13.4992L12.5635 10.2392Z" fill="#A42F2C"/>
<path d="M16.6235 7.25924L17.3335 6.85924L19.0435 9.85924L20.4235 9.07924L20.7435 9.64924L18.6535 10.8592L16.6235 7.25924Z" fill="#A42F2C"/>
<path d="M20.8237 5.14925L21.5937 4.86925L22.7737 8.14925L24.2437 7.55925L24.4637 8.16925L22.2437 9.03925L20.8237 5.14925Z" fill="#A42F2C"/>
<path d="M27.4233 3.34924L28.2433 3.27924L28.4433 5.65924C28.5033 6.35924 28.7633 6.80924 29.3833 6.74924C30.0033 6.68924 30.1833 6.21924 30.1333 5.51924L29.9333 3.13924L30.7533 3.06924L30.9733 5.70924C31.0161 5.92696 31.0076 6.15164 30.9486 6.36551C30.8895 6.57938 30.7815 6.77658 30.6331 6.9415C30.4846 7.10642 30.2999 7.23454 30.0934 7.31572C29.8869 7.3969 29.6643 7.42892 29.4433 7.40924C29.2283 7.46694 29.0027 7.47362 28.7846 7.42874C28.5665 7.38387 28.3619 7.28869 28.1871 7.15078C28.0123 7.01288 27.8721 6.83605 27.7777 6.6344C27.6833 6.43274 27.6373 6.21182 27.6433 5.98924L27.4233 3.34924Z" fill="#A42F2C"/>
<path d="M33.5537 3.13925L34.5537 3.27925L35.6737 6.55925L36.0837 3.48925L36.8737 3.55925L36.3237 7.65925L35.3237 7.52925L34.2437 4.27925L33.7737 7.34925L32.9937 7.24925L33.5537 3.13925Z" fill="#A42F2C"/>
<path d="M39.4133 4.26924L40.2433 4.55924L38.9533 8.45924L38.1733 8.20924L39.4133 4.26924Z" fill="#A42F2C"/>
<path d="M42.3234 5.24924L43.1034 5.64924L42.5734 9.01924L44.9734 6.55924L45.6934 6.92924L42.6034 9.99924L41.7134 9.55924L42.3234 5.24924Z" fill="#A42F2C"/>
<path d="M47.6936 8.29924L49.5936 9.78924L49.1936 10.2992L47.9436 9.29924L47.3136 10.0992L48.4636 10.9992L48.0636 11.5092L46.9136 10.6092L46.1836 11.5592L47.4436 12.5592L47.0436 13.0692L45.1436 11.5592L47.6936 8.29924Z" fill="#A42F2C"/>
<path d="M51.4936 11.5592L52.0736 12.2192C52.6536 12.8792 53.3636 13.6493 52.5036 14.4093C52.3239 14.5589 52.0974 14.6409 51.8636 14.6409C51.6297 14.6409 51.4033 14.5589 51.2236 14.4093C51.2781 14.5016 51.3069 14.607 51.3069 14.7143C51.3069 14.8215 51.2781 14.9269 51.2236 15.0192L50.4036 16.5592L49.8036 15.8692L50.4536 14.6493C50.5394 14.5477 50.5822 14.4167 50.5729 14.2841C50.5636 14.1515 50.5028 14.0277 50.4036 13.9392L50.2436 13.7792L48.9536 14.9093L48.4136 14.2992L51.4936 11.5592ZM50.7036 13.3392L50.8836 13.5592C51.1536 13.8592 51.5036 14.1693 51.8836 13.8293C52.2636 13.4893 51.9836 13.1293 51.7136 12.8293L51.5336 12.6292L50.7036 13.3392Z" fill="#A42F2C"/>
<path d="M55.3638 18.1292C55.3299 17.8437 55.238 17.568 55.0938 17.3192C55.0611 17.2408 55.0114 17.1707 54.9481 17.114C54.8849 17.0573 54.8098 17.0155 54.7284 16.9915C54.6469 16.9675 54.5611 16.9621 54.4773 16.9755C54.3934 16.989 54.3136 17.021 54.2438 17.0692C53.6238 17.4392 54.7938 18.8192 53.6038 19.5292C53.4403 19.6238 53.258 19.6814 53.0698 19.6978C52.8816 19.7142 52.6921 19.6891 52.5147 19.6243C52.3373 19.5594 52.1763 19.4564 52.0431 19.3225C51.9099 19.1885 51.8077 19.027 51.7438 18.8492C51.5606 18.5381 51.4257 18.2009 51.3438 17.8492L52.0538 17.5592C52.0617 17.8816 52.1475 18.1972 52.3038 18.4792C52.3701 18.6335 52.4936 18.7561 52.6483 18.8213C52.803 18.8866 52.977 18.8894 53.1338 18.8292C53.8138 18.4292 52.6238 17.0592 53.8038 16.3592C53.958 16.2645 54.1311 16.2045 54.3109 16.1832C54.4907 16.1619 54.6729 16.18 54.845 16.2361C55.0172 16.2922 55.1751 16.385 55.3078 16.5082C55.4405 16.6313 55.5449 16.7818 55.6138 16.9492C55.7854 17.2306 55.9104 17.5379 55.9838 17.8592L55.3638 18.1292Z" fill="#A42F2C"/>
<path d="M57.1738 20.1892L57.4838 20.9492L53.6538 22.5592L53.3438 21.7592L57.1738 20.1892Z" fill="#A42F2C"/>
<path d="M57.8834 24.2892L57.6034 23.1492L58.2434 22.9992L58.9934 26.0692L58.3634 26.2292L58.0834 25.0892L54.7034 25.9192L54.5034 25.1192L57.8834 24.2892Z" fill="#A42F2C"/>
<path d="M56.8937 29.6192L59.3037 27.9892L59.3537 28.9892L57.6737 30.0492L59.4637 30.9392V31.8092L56.9437 30.4392L55.3037 30.5592V29.7392L56.8937 29.6192Z" fill="#A42F2C"/>
<path d="M7.85379 36.7692L8.48379 38.9692L7.85379 39.1492L7.45379 37.7492L6.45379 38.0292L6.84379 39.3692L6.24379 39.5592L5.85379 38.2092L4.11379 38.7092L3.88379 37.9192L7.85379 36.7692Z" fill="#A42F2C"/>
<path d="M9.79344 41.8393C9.92945 42.0815 10.0116 42.3503 10.0341 42.6272C10.0567 42.9041 10.0193 43.1826 9.92434 43.4437C9.8294 43.7048 9.6792 43.9423 9.48402 44.14C9.28885 44.3377 9.05328 44.4909 8.79344 44.5893C8.5565 44.7395 8.28981 44.8365 8.01175 44.8736C7.73369 44.9108 7.45088 44.8872 7.18282 44.8045C6.91475 44.7218 6.66781 44.582 6.45902 44.3946C6.25024 44.2073 6.08457 43.9768 5.97344 43.7193C5.83564 43.4766 5.75209 43.207 5.72856 42.9289C5.70502 42.6509 5.74206 42.371 5.83711 42.1087C5.93217 41.8463 6.08298 41.6077 6.27915 41.4093C6.47533 41.2109 6.7122 41.0573 6.97344 40.9593C7.21006 40.8058 7.47757 40.7064 7.75697 40.6681C8.03636 40.6297 8.32077 40.6534 8.58997 40.7374C8.85918 40.8214 9.10658 40.9637 9.31458 41.1541C9.52258 41.3446 9.68607 41.5785 9.79344 41.8393ZM6.54344 43.4393C6.63334 43.5944 6.7551 43.7288 6.90069 43.8335C7.04628 43.9383 7.2124 44.011 7.38811 44.0469C7.56383 44.0828 7.74516 44.0811 7.92016 44.0418C8.09516 44.0026 8.25987 43.9267 8.40344 43.8192C8.5808 43.783 8.74757 43.7069 8.89104 43.5965C9.03452 43.4861 9.15092 43.3444 9.23138 43.1823C9.31185 43.0201 9.35427 42.8418 9.3554 42.6607C9.35653 42.4797 9.31635 42.3008 9.23791 42.1377C9.15948 41.9745 9.04485 41.8314 8.90277 41.7193C8.76068 41.6071 8.59488 41.5288 8.41799 41.4904C8.24109 41.452 8.05776 41.4544 7.88195 41.4976C7.70614 41.5407 7.54248 41.6233 7.40344 41.7393C7.22903 41.7846 7.06627 41.8665 6.92597 41.9796C6.78566 42.0927 6.67103 42.2343 6.58969 42.3951C6.50834 42.5559 6.46215 42.7322 6.45417 42.9122C6.4462 43.0922 6.47663 43.2719 6.54344 43.4393Z" fill="#A42F2C"/>
<path d="M11.5534 45.0992L12.0734 45.7492L10.2434 47.2292C9.69339 47.6692 9.46339 48.1292 9.86339 48.6292C10.2634 49.1292 10.7134 49.0092 11.2434 48.5592L13.1134 47.0692L13.6334 47.7192L11.5634 49.3592C11.4043 49.5146 11.2115 49.631 10.9999 49.6994C10.7883 49.7677 10.5638 49.7861 10.3439 49.7532C10.124 49.7203 9.91477 49.6369 9.73251 49.5095C9.55025 49.3822 9.39995 49.2144 9.29339 49.0192C9.12498 48.8716 8.99333 48.6867 8.90892 48.4792C8.8245 48.2717 8.78965 48.0474 8.80712 47.8241C8.8246 47.6008 8.89392 47.3847 9.00958 47.1929C9.12524 47.0011 9.28405 46.8389 9.47339 46.7192L11.5534 45.0992Z" fill="#A42F2C"/>
<path d="M14.9435 49.0592L15.7335 49.6992L14.9935 53.0892L16.9935 50.6992L17.6035 51.1992L14.9835 54.3993L14.2035 53.7593L14.9435 50.3592L12.9435 52.7492L12.3335 52.2492L14.9435 49.0592Z" fill="#A42F2C"/>
<path d="M19.1437 52.2192L20.1437 52.7292C21.2737 53.2992 22.0837 54.1792 21.3437 55.6492C20.6037 57.1192 19.4137 56.9992 18.2837 56.4292L17.2837 55.9292L19.1437 52.2192ZM18.3137 55.7092L18.7237 55.9192C19.0545 56.0533 19.4236 56.0578 19.7576 55.932C20.0916 55.8062 20.366 55.5592 20.5261 55.2402C20.6862 54.9213 20.7203 54.5537 20.6217 54.2107C20.523 53.8677 20.2988 53.5744 19.9937 53.3892L19.5837 53.1792L18.3137 55.7092Z" fill="#A42F2C"/>
<path d="M23.9338 54.3492L26.2438 54.9792L26.1138 55.5592L24.5638 55.1492L24.3038 56.1492L25.7238 56.5592L25.5538 57.1892L24.1338 56.8092L23.8338 57.9292L25.3938 58.3492L25.2438 58.9792L22.8838 58.3492L23.9338 54.3492Z" fill="#A42F2C"/>
<path d="M28.1038 55.2993L29.2438 55.3693C30.5038 55.4393 31.5938 55.9293 31.5038 57.5693C31.4138 59.2093 30.2438 59.5593 28.9938 59.4993L27.8638 59.4393L28.1038 55.2993ZM28.7338 58.8293H29.1938C29.5551 58.8272 29.9021 58.6875 30.164 58.4386C30.4259 58.1896 30.5831 57.8502 30.6035 57.4894C30.6239 57.1287 30.506 56.7737 30.2738 56.4968C30.0416 56.22 29.7126 56.042 29.3538 55.9993H28.8938L28.7338 58.8293Z" fill="#A42F2C"/>
<path d="M35.6934 55.0093L36.6034 54.8092L39.0534 58.5592L38.1534 58.7492L37.6134 57.8993L35.9734 58.2492L35.8234 59.2492L34.9834 59.4292L35.6934 55.0093ZM36.3134 55.7292L36.0734 57.5592L37.2434 57.2692L36.3134 55.7292Z" fill="#A42F2C"/>
<path d="M39.9736 57.2692L40.7536 56.9892L41.0336 57.7692L40.2436 58.0492L39.9736 57.2692Z" fill="#A42F2C"/>
<path d="M41.0234 53.3492L42.0234 52.8092C43.1334 52.1992 44.3234 52.0492 45.1034 53.4892C45.8834 54.9292 45.1034 55.8392 43.9934 56.4892L42.9934 57.0292L41.0234 53.3492ZM43.4134 56.0192L43.8134 55.7992C44.1154 55.6057 44.333 55.3051 44.4224 54.9578C44.5119 54.6105 44.4666 54.2422 44.2956 53.9269C44.1247 53.6116 43.8408 53.3726 43.5009 53.2581C43.161 53.1435 42.7904 53.1618 42.4634 53.3092L42.0634 53.5292L43.4134 56.0192Z" fill="#A42F2C"/>
<path d="M46.2935 54.1192L46.9735 53.6492L47.4435 54.3292L46.7635 54.7992L46.2935 54.1192Z" fill="#A42F2C"/>
<path d="M48.0035 48.4593L48.5235 47.9492L51.4335 50.8993L50.8435 51.4792L48.6035 49.2093L48.5035 50.0993L47.8335 50.0093L48.0035 48.4593Z" fill="#A42F2C"/>
<path d="M51.7037 47.2692C51.5292 47.3862 51.3238 47.4486 51.1137 47.4486C50.9036 47.4486 50.6983 47.3862 50.5237 47.2692C50.3947 47.1715 50.2884 47.047 50.2122 46.9042C50.1359 46.7615 50.0915 46.6039 50.082 46.4423C50.0725 46.2807 50.0981 46.119 50.1571 45.9683C50.2161 45.8176 50.3071 45.6814 50.4237 45.5692C50.4913 45.4245 50.5881 45.2953 50.7079 45.1897C50.8278 45.0841 50.9681 45.0044 51.1202 44.9556C51.2723 44.9068 51.4328 44.8899 51.5918 44.906C51.7507 44.9221 51.9045 44.9709 52.0437 45.0492C52.2136 45.1799 52.3412 45.3577 52.4106 45.5605C52.4799 45.7632 52.488 45.9819 52.4337 46.1892C52.6296 46.0506 52.8637 45.9762 53.1037 45.9762C53.3437 45.9762 53.5778 46.0506 53.7737 46.1892C53.9185 46.2929 54.0387 46.4273 54.1255 46.5828C54.2124 46.7383 54.2639 46.911 54.2763 47.0887C54.2887 47.2663 54.2618 47.4445 54.1974 47.6106C54.133 47.7766 54.0327 47.9264 53.9037 48.0492C53.8252 48.2097 53.7126 48.3512 53.5739 48.4637C53.4352 48.5763 53.2736 48.6573 53.1003 48.7011C52.9271 48.7448 52.7465 48.7504 52.5709 48.7172C52.3953 48.6841 52.2291 48.6131 52.0837 48.5092C51.9036 48.3689 51.7706 48.1768 51.7027 47.9588C51.6348 47.7407 51.6351 47.5071 51.7037 47.2892V47.2692ZM51.9037 46.4792C51.9394 46.3516 51.9387 46.2165 51.9016 46.0893C51.8644 45.962 51.7925 45.8477 51.6937 45.7592C51.6419 45.7137 51.5809 45.6799 51.5148 45.66C51.4487 45.6402 51.3792 45.6349 51.3108 45.6444C51.2425 45.6538 51.177 45.678 51.1188 45.715C51.0607 45.7521 51.0112 45.8013 50.9737 45.8592C50.9211 45.9097 50.8792 45.9702 50.8506 46.0372C50.822 46.1042 50.8072 46.1764 50.8072 46.2492C50.8072 46.3221 50.822 46.3942 50.8506 46.4613C50.8792 46.5283 50.9211 46.5888 50.9737 46.6392C51.1253 46.7162 51.2977 46.7422 51.4653 46.7134C51.6328 46.6845 51.7866 46.6024 51.9037 46.4792ZM53.4137 47.6692C53.4644 47.6126 53.5025 47.5459 53.5255 47.4735C53.5486 47.4011 53.5561 47.3246 53.5476 47.2491C53.5391 47.1736 53.5148 47.1007 53.4762 47.0353C53.4376 46.9698 53.3857 46.9132 53.3237 46.8692C53.1664 46.7764 52.9826 46.7388 52.8014 46.7624C52.6202 46.7859 52.4521 46.8693 52.3237 46.9992C52.2747 47.1456 52.2714 47.3034 52.3143 47.4517C52.3572 47.5999 52.4442 47.7316 52.5637 47.8292C52.6295 47.8761 52.7041 47.9092 52.783 47.9265C52.8618 47.9439 52.9434 47.9451 53.0228 47.9302C53.1022 47.9152 53.1777 47.8844 53.2449 47.8396C53.3121 47.7947 53.3695 47.7368 53.4137 47.6692Z" fill="#A42F2C"/>
<path d="M53.9237 41.2492C53.728 41.4034 53.5677 41.5978 53.4537 41.8192C53.402 41.9609 53.3795 42.1115 53.3875 42.262C53.3955 42.4126 53.4337 42.56 53.5 42.6954C53.5663 42.8308 53.6593 42.9514 53.7733 43.05C53.8873 43.1486 54.0201 43.2232 54.1637 43.2692C54.0837 43.1328 54.0415 42.9774 54.0415 42.8192C54.0415 42.6611 54.0837 42.5057 54.1637 42.3692C54.2278 42.2153 54.3249 42.0772 54.4482 41.9649C54.5715 41.8525 54.7179 41.7686 54.8771 41.719C55.0364 41.6694 55.2046 41.6554 55.3699 41.6779C55.5351 41.7004 55.6935 41.7589 55.8337 41.8492C56.018 41.9094 56.1865 42.0101 56.3269 42.1438C56.4673 42.2776 56.576 42.4411 56.6451 42.6223C56.7141 42.8035 56.7417 42.9978 56.7259 43.1911C56.7101 43.3844 56.6512 43.5717 56.5537 43.7392C56.0437 44.7392 55.0737 44.5692 54.2037 44.1292C53.3337 43.6892 52.2437 42.7592 52.8537 41.5592C52.9845 41.2942 53.1605 41.054 53.3737 40.8492L53.9237 41.2492ZM55.0837 43.6492C55.1541 43.7019 55.2349 43.7389 55.3207 43.7579C55.4066 43.7769 55.4955 43.7775 55.5815 43.7595C55.6676 43.7415 55.7488 43.7055 55.8199 43.6537C55.8909 43.6019 55.9502 43.5357 55.9937 43.4592C56.023 43.378 56.0353 43.2915 56.0299 43.2053C56.0244 43.1191 56.0013 43.0349 55.9619 42.958C55.9225 42.8811 55.8677 42.8131 55.8009 42.7582C55.7341 42.7034 55.6568 42.6629 55.5737 42.6392C55.5024 42.583 55.4202 42.5424 55.3322 42.5199C55.2443 42.4974 55.1527 42.4936 55.0632 42.5086C54.9737 42.5237 54.8884 42.5574 54.8127 42.6074C54.737 42.6575 54.6726 42.7228 54.6237 42.7992C54.5914 42.885 54.5779 42.9767 54.5842 43.0681C54.5904 43.1595 54.6162 43.2485 54.6598 43.3291C54.7034 43.4097 54.7639 43.48 54.837 43.5352C54.9101 43.5905 54.9942 43.6293 55.0837 43.6492Z" fill="#A42F2C"/>
<path d="M55.3034 36.8392L54.8534 38.3592L55.6934 38.6292C55.7032 38.5037 55.7267 38.3797 55.7634 38.2593C55.7999 38.0823 55.875 37.9156 55.9832 37.771C56.0914 37.6263 56.2302 37.5073 56.3896 37.4223C56.549 37.3374 56.7252 37.2886 56.9056 37.2794C57.086 37.2702 57.2662 37.3009 57.4334 37.3693C57.628 37.4256 57.8081 37.5233 57.9615 37.6555C58.1149 37.7877 58.238 37.9515 58.3224 38.1356C58.4069 38.3196 58.4507 38.5198 58.4509 38.7223C58.451 38.9248 58.4076 39.125 58.3234 39.3092C58.226 39.6192 58.0953 39.9176 57.9334 40.1992L57.2434 39.9692C57.4408 39.7527 57.5907 39.4972 57.6834 39.2192C57.7286 39.1221 57.753 39.0165 57.7551 38.9094C57.7571 38.8023 57.7368 38.6959 57.6954 38.5971C57.654 38.4982 57.5924 38.4091 57.5145 38.3355C57.4367 38.2618 57.3444 38.2052 57.2434 38.1693C57.131 38.1379 57.013 38.1318 56.898 38.1515C56.7829 38.1711 56.6737 38.216 56.5781 38.283C56.4824 38.3499 56.4028 38.4372 56.345 38.5386C56.2871 38.6399 56.2524 38.7529 56.2434 38.8693C56.1717 39.1092 56.138 39.3589 56.1434 39.6092L54.0234 38.9393L54.7034 36.6693L55.3034 36.8392Z" fill="#A42F2C"/>
<path d="M23.0234 33.0492H21.4634V34.7692H23.0234V33.0492Z" fill="#A42F2C"/>
<path d="M23.1134 37.0092H21.4634V38.7292H23.1134V37.0092Z" fill="#A42F2C"/>
<path d="M23.0234 40.5592H21.4634V42.2692H23.0234V40.5592Z" fill="#A42F2C"/>
<path d="M41.0034 33.3893H39.4434V35.0993H41.0034V33.3893Z" fill="#A42F2C"/>
<path d="M41.0934 37.3492H39.4434V39.0692H41.0934V37.3492Z" fill="#A42F2C"/>
<path d="M41.0034 40.8992H39.4434V42.6092H41.0034V40.8992Z" fill="#A42F2C"/>
<path d="M7.24358 28.2492C7.30324 28.5588 7.32673 28.8743 7.31358 29.1892C7.32973 29.4788 7.28272 29.7684 7.17579 30.038C7.06887 30.3076 6.90459 30.5507 6.69436 30.7505C6.48412 30.9502 6.23295 31.1019 5.95826 31.1949C5.68358 31.288 5.39194 31.3201 5.10358 31.2892C4.8009 31.3052 4.49856 31.2521 4.21941 31.134C3.94025 31.0159 3.69159 30.8359 3.4922 30.6077C3.29281 30.3794 3.14792 30.1088 3.06847 29.8163C2.98902 29.5238 2.97709 29.217 3.03358 28.9192C3.05039 28.606 3.12145 28.2981 3.24358 28.0092L3.94358 28.1092C3.77372 28.3682 3.68016 28.6697 3.67358 28.9792C3.66093 29.17 3.68834 29.3613 3.75405 29.5408C3.81975 29.7203 3.92231 29.8841 4.05511 30.0216C4.18792 30.1592 4.34803 30.2673 4.52516 30.3393C4.70228 30.4112 4.8925 30.4452 5.08358 30.4392C5.27267 30.4691 5.46596 30.4584 5.65061 30.4079C5.83526 30.3574 6.00705 30.2682 6.15459 30.1462C6.30212 30.0242 6.42202 29.8722 6.50632 29.7003C6.59063 29.5284 6.63742 29.3406 6.64358 29.1492C6.66544 28.8442 6.6246 28.5379 6.52358 28.2492H7.24358Z" fill="#A42F2C"/>
<path d="M3.9834 23.7392C4.04682 23.4696 4.16784 23.2168 4.33817 22.9983C4.5085 22.7798 4.72409 22.6007 4.97015 22.4734C5.21621 22.3461 5.48691 22.2736 5.76365 22.2608C6.0404 22.248 6.31664 22.2952 6.5734 22.3992C6.8262 22.4708 7.06242 22.5915 7.26858 22.7543C7.47474 22.9172 7.64681 23.1191 7.77496 23.3484C7.9031 23.5778 7.98481 23.8301 8.01543 24.0911C8.04605 24.352 8.02497 24.6164 7.9534 24.8692C7.88183 25.122 7.76117 25.3583 7.59831 25.5644C7.43545 25.7706 7.23357 25.9426 7.00421 26.0708C6.77485 26.1989 6.52249 26.2806 6.26155 26.3113C6.00061 26.3419 5.7362 26.3208 5.4834 26.2492C5.20836 26.2047 4.94639 26.1006 4.71586 25.9442C4.48532 25.7877 4.2918 25.5827 4.14888 25.3436C4.00596 25.1044 3.91708 24.8369 3.8885 24.5597C3.85991 24.2826 3.8923 24.0025 3.9834 23.7392ZM7.4734 24.7392C7.50932 24.5641 7.50785 24.3833 7.4691 24.2088C7.43034 24.0343 7.35517 23.8699 7.2485 23.7264C7.14184 23.5829 7.00607 23.4636 6.8501 23.3762C6.69413 23.2888 6.52147 23.2353 6.3434 23.2192C6.18814 23.1291 6.01436 23.0756 5.8353 23.0628C5.65625 23.05 5.47663 23.0783 5.31013 23.1454C5.14362 23.2124 4.99462 23.3166 4.87446 23.45C4.7543 23.5834 4.66616 23.7424 4.61674 23.915C4.56732 24.0876 4.55793 24.2691 4.58928 24.4459C4.62062 24.6227 4.69189 24.7899 4.79764 24.935C4.90339 25.08 5.04085 25.1991 5.19954 25.283C5.35823 25.3669 5.53398 25.4135 5.7134 25.4192C5.87274 25.4993 6.04715 25.545 6.2253 25.5532C6.40344 25.5614 6.58132 25.532 6.74735 25.4669C6.91338 25.4018 7.06384 25.3025 7.18894 25.1754C7.31403 25.0483 7.41096 24.8963 7.4734 24.7292V24.7392Z" fill="#A42F2C"/>
<path d="M5.62354 19.4592L6.04354 18.6792C6.45354 17.9092 6.92353 16.9692 7.93353 17.5092C8.14404 17.6151 8.30711 17.7962 8.39045 18.0165C8.47379 18.2369 8.47132 18.4806 8.38354 18.6992C8.46114 18.6265 8.55641 18.5753 8.65991 18.5507C8.7634 18.5262 8.87152 18.5291 8.97353 18.5592L10.7035 18.7392L10.2435 19.5592L8.87354 19.3892C8.74876 19.3469 8.61244 19.3545 8.49314 19.4104C8.37383 19.4663 8.2808 19.5662 8.23353 19.6892L8.11353 19.9192L9.63354 20.7292L9.24354 21.4092L5.62354 19.4592ZM7.56353 19.5592L7.69353 19.3192C7.88353 18.9592 8.04354 18.5292 7.59354 18.3192C7.14354 18.1092 6.90354 18.4692 6.71354 18.8292L6.58354 19.0692L7.56353 19.5592Z" fill="#A42F2C"/>
<path d="M8.42334 14.7392L9.06334 13.9692L12.4333 14.7492L10.0533 12.7492L10.5533 12.1492L13.7433 14.7892L13.1133 15.5592L9.73334 14.7892L12.1133 16.7892L11.6133 17.3892L8.42334 14.7392Z" fill="#A42F2C"/>
<path d="M12.5635 10.2392L14.4335 8.71924L14.8435 9.22924L13.6135 10.2292L14.2435 11.0192L15.3735 10.0992L15.7935 10.5592L14.6635 11.5592L15.3935 12.4592L16.6335 11.4592L17.0435 11.9692L15.1635 13.4992L12.5635 10.2392Z" fill="#A42F2C"/>
<path d="M16.6235 7.25924L17.3335 6.85924L19.0435 9.85924L20.4235 9.07924L20.7435 9.64924L18.6535 10.8592L16.6235 7.25924Z" fill="#A42F2C"/>
<path d="M20.8237 5.14925L21.5937 4.86925L22.7737 8.14925L24.2437 7.55925L24.4637 8.16925L22.2437 9.03925L20.8237 5.14925Z" fill="#A42F2C"/>
<path d="M27.4233 3.34924L28.2433 3.27924L28.4433 5.65924C28.5033 6.35924 28.7633 6.80924 29.3833 6.74924C30.0033 6.68924 30.1833 6.21924 30.1333 5.51924L29.9333 3.13924L30.7533 3.06924L30.9733 5.70924C31.0161 5.92696 31.0076 6.15164 30.9486 6.36551C30.8895 6.57938 30.7815 6.77658 30.6331 6.9415C30.4846 7.10642 30.2999 7.23454 30.0934 7.31572C29.8869 7.3969 29.6643 7.42892 29.4433 7.40924C29.2283 7.46694 29.0027 7.47362 28.7846 7.42874C28.5665 7.38387 28.3619 7.28869 28.1871 7.15078C28.0123 7.01288 27.8721 6.83605 27.7777 6.6344C27.6833 6.43274 27.6373 6.21182 27.6433 5.98924L27.4233 3.34924Z" fill="#A42F2C"/>
<path d="M33.5537 3.13925L34.5537 3.27925L35.6737 6.55925L36.0837 3.48925L36.8737 3.55925L36.3237 7.65925L35.3237 7.52925L34.2437 4.27925L33.7737 7.34925L32.9937 7.24925L33.5537 3.13925Z" fill="#A42F2C"/>
<path d="M39.4133 4.26924L40.2433 4.55924L38.9533 8.45924L38.1733 8.20924L39.4133 4.26924Z" fill="#A42F2C"/>
<path d="M42.3234 5.24924L43.1034 5.64924L42.5734 9.01924L44.9734 6.55924L45.6934 6.92924L42.6034 9.99924L41.7134 9.55924L42.3234 5.24924Z" fill="#A42F2C"/>
<path d="M47.6936 8.29924L49.5936 9.78924L49.1936 10.2992L47.9436 9.29924L47.3136 10.0992L48.4636 10.9992L48.0636 11.5092L46.9136 10.6092L46.1836 11.5592L47.4436 12.5592L47.0436 13.0692L45.1436 11.5592L47.6936 8.29924Z" fill="#A42F2C"/>
<path d="M51.4936 11.5592L52.0736 12.2192C52.6536 12.8792 53.3636 13.6493 52.5036 14.4093C52.3239 14.5589 52.0974 14.6409 51.8636 14.6409C51.6297 14.6409 51.4033 14.5589 51.2236 14.4093C51.2781 14.5016 51.3069 14.607 51.3069 14.7143C51.3069 14.8215 51.2781 14.9269 51.2236 15.0192L50.4036 16.5592L49.8036 15.8692L50.4536 14.6493C50.5394 14.5477 50.5822 14.4167 50.5729 14.2841C50.5636 14.1515 50.5028 14.0277 50.4036 13.9392L50.2436 13.7792L48.9536 14.9093L48.4136 14.2992L51.4936 11.5592ZM50.7036 13.3392L50.8836 13.5592C51.1536 13.8592 51.5036 14.1693 51.8836 13.8293C52.2636 13.4893 51.9836 13.1293 51.7136 12.8293L51.5336 12.6292L50.7036 13.3392Z" fill="#A42F2C"/>
<path d="M55.3638 18.1292C55.3299 17.8437 55.238 17.568 55.0938 17.3192C55.0611 17.2408 55.0114 17.1707 54.9481 17.114C54.8849 17.0573 54.8098 17.0155 54.7284 16.9915C54.6469 16.9675 54.5611 16.9621 54.4773 16.9755C54.3934 16.989 54.3136 17.021 54.2438 17.0692C53.6238 17.4392 54.7938 18.8192 53.6038 19.5292C53.4403 19.6238 53.258 19.6814 53.0698 19.6978C52.8816 19.7142 52.6921 19.6891 52.5147 19.6243C52.3373 19.5594 52.1763 19.4564 52.0431 19.3225C51.9099 19.1885 51.8077 19.027 51.7438 18.8492C51.5606 18.5381 51.4257 18.2009 51.3438 17.8492L52.0538 17.5592C52.0617 17.8816 52.1475 18.1972 52.3038 18.4792C52.3701 18.6335 52.4936 18.7561 52.6483 18.8213C52.803 18.8866 52.977 18.8894 53.1338 18.8292C53.8138 18.4292 52.6238 17.0592 53.8038 16.3592C53.958 16.2645 54.1311 16.2045 54.3109 16.1832C54.4907 16.1619 54.6729 16.18 54.845 16.2361C55.0172 16.2922 55.1751 16.385 55.3078 16.5082C55.4405 16.6313 55.5449 16.7818 55.6138 16.9492C55.7854 17.2306 55.9104 17.5379 55.9838 17.8592L55.3638 18.1292Z" fill="#A42F2C"/>
<path d="M57.1738 20.1892L57.4838 20.9492L53.6538 22.5592L53.3438 21.7592L57.1738 20.1892Z" fill="#A42F2C"/>
<path d="M57.8834 24.2892L57.6034 23.1492L58.2434 22.9992L58.9934 26.0692L58.3634 26.2292L58.0834 25.0892L54.7034 25.9192L54.5034 25.1192L57.8834 24.2892Z" fill="#A42F2C"/>
<path d="M56.8937 29.6192L59.3037 27.9892L59.3537 28.9892L57.6737 30.0492L59.4637 30.9392V31.8092L56.9437 30.4392L55.3037 30.5592V29.7392L56.8937 29.6192Z" fill="#A42F2C"/>
<path d="M7.85379 36.7692L8.48379 38.9692L7.85379 39.1492L7.45379 37.7492L6.45379 38.0292L6.84379 39.3692L6.24379 39.5592L5.85379 38.2092L4.11379 38.7092L3.88379 37.9192L7.85379 36.7692Z" fill="#A42F2C"/>
<path d="M9.79344 41.8393C9.92945 42.0815 10.0116 42.3503 10.0341 42.6272C10.0567 42.9041 10.0193 43.1826 9.92434 43.4437C9.8294 43.7048 9.6792 43.9423 9.48402 44.14C9.28885 44.3377 9.05328 44.4909 8.79344 44.5893C8.5565 44.7395 8.28981 44.8365 8.01175 44.8736C7.73369 44.9108 7.45088 44.8872 7.18282 44.8045C6.91475 44.7218 6.66781 44.582 6.45902 44.3946C6.25024 44.2073 6.08457 43.9768 5.97344 43.7193C5.83564 43.4766 5.75209 43.207 5.72856 42.9289C5.70502 42.6509 5.74206 42.371 5.83711 42.1087C5.93217 41.8463 6.08298 41.6077 6.27915 41.4093C6.47533 41.2109 6.7122 41.0573 6.97344 40.9593C7.21006 40.8058 7.47757 40.7064 7.75697 40.6681C8.03636 40.6297 8.32077 40.6534 8.58997 40.7374C8.85918 40.8214 9.10658 40.9637 9.31458 41.1541C9.52258 41.3446 9.68607 41.5785 9.79344 41.8393ZM6.54344 43.4393C6.63334 43.5944 6.7551 43.7288 6.90069 43.8335C7.04628 43.9383 7.2124 44.011 7.38811 44.0469C7.56383 44.0828 7.74516 44.0811 7.92016 44.0418C8.09516 44.0026 8.25987 43.9267 8.40344 43.8192C8.5808 43.783 8.74757 43.7069 8.89104 43.5965C9.03452 43.4861 9.15092 43.3444 9.23138 43.1823C9.31185 43.0201 9.35427 42.8418 9.3554 42.6607C9.35653 42.4797 9.31635 42.3008 9.23791 42.1377C9.15948 41.9745 9.04485 41.8314 8.90277 41.7193C8.76068 41.6071 8.59488 41.5288 8.41799 41.4904C8.24109 41.452 8.05776 41.4544 7.88195 41.4976C7.70614 41.5407 7.54248 41.6233 7.40344 41.7393C7.22903 41.7846 7.06627 41.8665 6.92597 41.9796C6.78566 42.0927 6.67103 42.2343 6.58969 42.3951C6.50834 42.5559 6.46215 42.7322 6.45417 42.9122C6.4462 43.0922 6.47663 43.2719 6.54344 43.4393Z" fill="#A42F2C"/>
<path d="M11.5534 45.0992L12.0734 45.7492L10.2434 47.2292C9.69339 47.6692 9.46339 48.1292 9.86339 48.6292C10.2634 49.1292 10.7134 49.0092 11.2434 48.5592L13.1134 47.0692L13.6334 47.7192L11.5634 49.3592C11.4043 49.5146 11.2115 49.631 10.9999 49.6994C10.7883 49.7677 10.5638 49.7861 10.3439 49.7532C10.124 49.7203 9.91477 49.6369 9.73251 49.5095C9.55025 49.3822 9.39995 49.2144 9.29339 49.0192C9.12498 48.8716 8.99333 48.6867 8.90892 48.4792C8.8245 48.2717 8.78965 48.0474 8.80712 47.8241C8.8246 47.6008 8.89392 47.3847 9.00958 47.1929C9.12524 47.0011 9.28405 46.8389 9.47339 46.7192L11.5534 45.0992Z" fill="#A42F2C"/>
<path d="M14.9435 49.0592L15.7335 49.6992L14.9935 53.0892L16.9935 50.6992L17.6035 51.1992L14.9835 54.3993L14.2035 53.7593L14.9435 50.3592L12.9435 52.7492L12.3335 52.2492L14.9435 49.0592Z" fill="#A42F2C"/>
<path d="M19.1437 52.2192L20.1437 52.7292C21.2737 53.2992 22.0837 54.1792 21.3437 55.6492C20.6037 57.1192 19.4137 56.9992 18.2837 56.4292L17.2837 55.9292L19.1437 52.2192ZM18.3137 55.7092L18.7237 55.9192C19.0545 56.0533 19.4236 56.0578 19.7576 55.932C20.0916 55.8062 20.366 55.5592 20.5261 55.2402C20.6862 54.9213 20.7203 54.5537 20.6217 54.2107C20.523 53.8677 20.2988 53.5744 19.9937 53.3892L19.5837 53.1792L18.3137 55.7092Z" fill="#A42F2C"/>
<path d="M23.9338 54.3492L26.2438 54.9792L26.1138 55.5592L24.5638 55.1492L24.3038 56.1492L25.7238 56.5592L25.5538 57.1892L24.1338 56.8092L23.8338 57.9292L25.3938 58.3492L25.2438 58.9792L22.8838 58.3492L23.9338 54.3492Z" fill="#A42F2C"/>
<path d="M28.1038 55.2993L29.2438 55.3693C30.5038 55.4393 31.5938 55.9293 31.5038 57.5693C31.4138 59.2093 30.2438 59.5593 28.9938 59.4993L27.8638 59.4393L28.1038 55.2993ZM28.7338 58.8293H29.1938C29.5551 58.8272 29.9021 58.6875 30.164 58.4386C30.4259 58.1896 30.5831 57.8502 30.6035 57.4894C30.6239 57.1287 30.506 56.7737 30.2738 56.4968C30.0416 56.22 29.7126 56.042 29.3538 55.9993H28.8938L28.7338 58.8293Z" fill="#A42F2C"/>
<path d="M35.6934 55.0093L36.6034 54.8092L39.0534 58.5592L38.1534 58.7492L37.6134 57.8993L35.9734 58.2492L35.8234 59.2492L34.9834 59.4292L35.6934 55.0093ZM36.3134 55.7292L36.0734 57.5592L37.2434 57.2692L36.3134 55.7292Z" fill="#A42F2C"/>
<path d="M39.9736 57.2692L40.7536 56.9892L41.0336 57.7692L40.2436 58.0492L39.9736 57.2692Z" fill="#A42F2C"/>
<path d="M41.0234 53.3492L42.0234 52.8092C43.1334 52.1992 44.3234 52.0492 45.1034 53.4892C45.8834 54.9292 45.1034 55.8392 43.9934 56.4892L42.9934 57.0292L41.0234 53.3492ZM43.4134 56.0192L43.8134 55.7992C44.1154 55.6057 44.333 55.3051 44.4224 54.9578C44.5119 54.6105 44.4666 54.2422 44.2956 53.9269C44.1247 53.6116 43.8408 53.3726 43.5009 53.2581C43.161 53.1435 42.7904 53.1618 42.4634 53.3092L42.0634 53.5292L43.4134 56.0192Z" fill="#A42F2C"/>
<path d="M46.2935 54.1192L46.9735 53.6492L47.4435 54.3292L46.7635 54.7992L46.2935 54.1192Z" fill="#A42F2C"/>
<path d="M48.0035 48.4593L48.5235 47.9492L51.4335 50.8993L50.8435 51.4792L48.6035 49.2093L48.5035 50.0993L47.8335 50.0093L48.0035 48.4593Z" fill="#A42F2C"/>
<path d="M51.7037 47.2692C51.5292 47.3862 51.3238 47.4486 51.1137 47.4486C50.9036 47.4486 50.6983 47.3862 50.5237 47.2692C50.3947 47.1715 50.2884 47.047 50.2122 46.9042C50.1359 46.7615 50.0915 46.6039 50.082 46.4423C50.0725 46.2807 50.0981 46.119 50.1571 45.9683C50.2161 45.8176 50.3071 45.6814 50.4237 45.5692C50.4913 45.4245 50.5881 45.2953 50.7079 45.1897C50.8278 45.0841 50.9681 45.0044 51.1202 44.9556C51.2723 44.9068 51.4328 44.8899 51.5918 44.906C51.7507 44.9221 51.9045 44.9709 52.0437 45.0492C52.2136 45.1799 52.3412 45.3577 52.4106 45.5605C52.4799 45.7632 52.488 45.9819 52.4337 46.1892C52.6296 46.0506 52.8637 45.9762 53.1037 45.9762C53.3437 45.9762 53.5778 46.0506 53.7737 46.1892C53.9185 46.2929 54.0387 46.4273 54.1255 46.5828C54.2124 46.7383 54.2639 46.911 54.2763 47.0887C54.2887 47.2663 54.2618 47.4445 54.1974 47.6106C54.133 47.7766 54.0327 47.9264 53.9037 48.0492C53.8252 48.2097 53.7126 48.3512 53.5739 48.4637C53.4352 48.5763 53.2736 48.6573 53.1003 48.7011C52.9271 48.7448 52.7465 48.7504 52.5709 48.7172C52.3953 48.6841 52.2291 48.6131 52.0837 48.5092C51.9036 48.3689 51.7706 48.1768 51.7027 47.9588C51.6348 47.7407 51.6351 47.5071 51.7037 47.2892V47.2692ZM51.9037 46.4792C51.9394 46.3516 51.9387 46.2165 51.9016 46.0893C51.8644 45.962 51.7925 45.8477 51.6937 45.7592C51.6419 45.7137 51.5809 45.6799 51.5148 45.66C51.4487 45.6402 51.3792 45.6349 51.3108 45.6444C51.2425 45.6538 51.177 45.678 51.1188 45.715C51.0607 45.7521 51.0112 45.8013 50.9737 45.8592C50.9211 45.9097 50.8792 45.9702 50.8506 46.0372C50.822 46.1042 50.8072 46.1764 50.8072 46.2492C50.8072 46.3221 50.822 46.3942 50.8506 46.4613C50.8792 46.5283 50.9211 46.5888 50.9737 46.6392C51.1253 46.7162 51.2977 46.7422 51.4653 46.7134C51.6328 46.6845 51.7866 46.6024 51.9037 46.4792ZM53.4137 47.6692C53.4644 47.6126 53.5025 47.5459 53.5255 47.4735C53.5486 47.4011 53.5561 47.3246 53.5476 47.2491C53.5391 47.1736 53.5148 47.1007 53.4762 47.0353C53.4376 46.9698 53.3857 46.9132 53.3237 46.8692C53.1664 46.7764 52.9826 46.7388 52.8014 46.7624C52.6202 46.7859 52.4521 46.8693 52.3237 46.9992C52.2747 47.1456 52.2714 47.3034 52.3143 47.4517C52.3572 47.5999 52.4442 47.7316 52.5637 47.8292C52.6295 47.8761 52.7041 47.9092 52.783 47.9265C52.8618 47.9439 52.9434 47.9451 53.0228 47.9302C53.1022 47.9152 53.1777 47.8844 53.2449 47.8396C53.3121 47.7947 53.3695 47.7368 53.4137 47.6692Z" fill="#A42F2C"/>
<path d="M53.9237 41.2492C53.728 41.4034 53.5677 41.5978 53.4537 41.8192C53.402 41.9609 53.3795 42.1115 53.3875 42.262C53.3955 42.4126 53.4337 42.56 53.5 42.6954C53.5663 42.8308 53.6593 42.9514 53.7733 43.05C53.8873 43.1486 54.0201 43.2232 54.1637 43.2692C54.0837 43.1328 54.0415 42.9774 54.0415 42.8192C54.0415 42.6611 54.0837 42.5057 54.1637 42.3692C54.2278 42.2153 54.3249 42.0772 54.4482 41.9649C54.5715 41.8525 54.7179 41.7686 54.8771 41.719C55.0364 41.6694 55.2046 41.6554 55.3699 41.6779C55.5351 41.7004 55.6935 41.7589 55.8337 41.8492C56.018 41.9094 56.1865 42.0101 56.3269 42.1438C56.4673 42.2776 56.576 42.4411 56.6451 42.6223C56.7141 42.8035 56.7417 42.9978 56.7259 43.1911C56.7101 43.3844 56.6512 43.5717 56.5537 43.7392C56.0437 44.7392 55.0737 44.5692 54.2037 44.1292C53.3337 43.6892 52.2437 42.7592 52.8537 41.5592C52.9845 41.2942 53.1605 41.054 53.3737 40.8492L53.9237 41.2492ZM55.0837 43.6492C55.1541 43.7019 55.2349 43.7389 55.3207 43.7579C55.4066 43.7769 55.4955 43.7775 55.5815 43.7595C55.6676 43.7415 55.7488 43.7055 55.8199 43.6537C55.8909 43.6019 55.9502 43.5357 55.9937 43.4592C56.023 43.378 56.0353 43.2915 56.0299 43.2053C56.0244 43.1191 56.0013 43.0349 55.9619 42.958C55.9225 42.8811 55.8677 42.8131 55.8009 42.7582C55.7341 42.7034 55.6568 42.6629 55.5737 42.6392C55.5024 42.583 55.4202 42.5424 55.3322 42.5199C55.2443 42.4974 55.1527 42.4936 55.0632 42.5086C54.9737 42.5237 54.8884 42.5574 54.8127 42.6074C54.737 42.6575 54.6726 42.7228 54.6237 42.7992C54.5914 42.885 54.5779 42.9767 54.5842 43.0681C54.5904 43.1595 54.6162 43.2485 54.6598 43.3291C54.7034 43.4097 54.7639 43.48 54.837 43.5352C54.9101 43.5905 54.9942 43.6293 55.0837 43.6492Z" fill="#A42F2C"/>
<path d="M55.3034 36.8392L54.8534 38.3592L55.6934 38.6292C55.7032 38.5037 55.7267 38.3797 55.7634 38.2593C55.7999 38.0823 55.875 37.9156 55.9832 37.771C56.0914 37.6263 56.2302 37.5073 56.3896 37.4223C56.549 37.3374 56.7252 37.2886 56.9056 37.2794C57.086 37.2702 57.2662 37.3009 57.4334 37.3693C57.628 37.4256 57.8081 37.5233 57.9615 37.6555C58.1149 37.7877 58.238 37.9515 58.3224 38.1356C58.4069 38.3196 58.4507 38.5198 58.4509 38.7223C58.451 38.9248 58.4076 39.125 58.3234 39.3092C58.226 39.6192 58.0953 39.9176 57.9334 40.1992L57.2434 39.9692C57.4408 39.7527 57.5907 39.4972 57.6834 39.2192C57.7286 39.1221 57.753 39.0165 57.7551 38.9094C57.7571 38.8023 57.7368 38.6959 57.6954 38.5971C57.654 38.4982 57.5924 38.4091 57.5145 38.3355C57.4367 38.2618 57.3444 38.2052 57.2434 38.1693C57.131 38.1379 57.013 38.1318 56.898 38.1515C56.7829 38.1711 56.6737 38.216 56.5781 38.283C56.4824 38.3499 56.4028 38.4372 56.345 38.5386C56.2871 38.6399 56.2524 38.7529 56.2434 38.8693C56.1717 39.1092 56.138 39.3589 56.1434 39.6092L54.0234 38.9393L54.7034 36.6693L55.3034 36.8392Z" fill="#A42F2C"/>
<path fill-rule="evenodd" clip-rule="evenodd" d="M84.9141 1.38448C82.3123 1.79167 80.1141 2.85547 78.3959 4.53879C76.7748 6.12687 75.8731 7.73283 75.2813 10.0859C74.8573 11.7716 74.859 15.0696 75.2846 16.774C75.6511 18.2411 76.6618 20.3344 77.5058 21.374C78.982 23.1926 81.3148 24.6422 83.7958 25.2828C84.834 25.5509 85.2717 25.587 87.348 25.5761C89.88 25.5628 90.7459 25.4146 92.5474 24.6871C95.7366 23.3989 97.9818 20.6057 98.4075 17.3965L98.4988 16.7082H95.5188H92.539L92.399 17.07C91.8317 18.5369 91.0594 19.4011 89.8305 19.9446C86.8311 21.2711 83.2858 20.1346 81.9078 17.4048C81.2963 16.1934 81.0665 15.1263 81.0638 13.4849C81.0613 11.9569 81.3569 10.5136 81.8842 9.48009C82.544 8.18672 84.0726 6.98175 85.562 6.58062C86.8967 6.22133 89.0722 6.48353 90.1765 7.13686C91.1518 7.71376 91.956 8.74164 92.1413 9.64757L92.2264 10.0644L95.4113 10.0996C99.0494 10.1399 98.7337 10.2759 98.3936 8.81453C98.0886 7.50365 97.1282 5.68416 96.2157 4.68825C93.7293 1.9748 89.3401 0.691684 84.9141 1.38448ZM170.166 13.4192V25.3912H172.928H175.691V13.4192V1.44711H172.928H170.166V13.4192ZM178.586 13.4165V25.3912H181.415H184.244L184.21 13.4521L184.177 1.51289L181.381 1.47737L178.586 1.44185V13.4165ZM106.819 8.08791C103.238 8.75138 100.627 11.1071 99.7681 14.4494C99.4742 15.5929 99.4162 17.7087 99.65 18.7524C100.634 23.141 104.378 25.8405 109.173 25.6183C112.073 25.484 114.166 24.5074 115.902 22.4785C117.178 20.9863 117.85 19.0531 117.86 16.8397C117.867 15.3615 117.701 14.4782 117.181 13.2248C115.603 9.42063 111.256 7.26592 106.819 8.08791ZM142.341 7.9778C141.081 8.16961 139.833 8.75822 138.967 9.56837L138.328 10.1662V9.16145V8.15672H135.565H132.802V16.774V25.3912H135.557H138.311L138.352 20.2274C138.392 15.2281 138.403 15.047 138.678 14.5374C139.68 12.6801 141.869 12.3285 143.364 13.785C144.208 14.6076 144.248 14.9107 144.248 20.4816V25.3912H147.089H149.93L149.87 19.3723C149.818 14.1926 149.778 13.2443 149.584 12.5711C148.965 10.4321 147.624 8.97464 145.651 8.29565C144.905 8.03897 143.086 7.86426 142.341 7.9778ZM157.866 8.09791C156.535 8.34946 154.903 9.13159 153.982 9.95898C152.001 11.7383 150.868 14.9858 151.225 17.8612C151.708 21.7459 154.328 24.697 157.958 25.4453C162.677 26.4182 167.046 24.1705 168.269 20.1401C168.37 19.8083 168.453 19.5219 168.454 19.5039C168.455 19.4858 167.243 19.471 165.762 19.471H163.068L162.872 19.85C162.279 20.9967 160.558 21.4756 158.842 20.971C157.919 20.6995 157.026 19.8155 156.727 18.8764L156.517 18.2211L162.504 18.1869L168.49 18.1527L168.423 16.4109C168.346 14.3985 168.009 13.1306 167.176 11.7264C166.17 10.0305 164.12 8.57982 162.14 8.16396C160.928 7.90912 159.02 7.87965 157.866 8.09791ZM119.208 8.24447C119.159 8.29262 119.12 12.1704 119.12 16.8617V25.3912H121.94H124.76L124.802 20.359L124.843 15.3268L125.238 14.5431C125.966 13.0974 126.751 12.7614 129.4 12.7614H130.829V10.459V8.15672H129.667C127.366 8.15672 126.198 8.64389 125.31 9.97411L124.843 10.6734L124.805 9.41497L124.768 8.15672H122.031C120.527 8.15672 119.256 8.19619 119.208 8.24447ZM158.966 11.9729C158.631 12.0303 158.246 12.1375 158.111 12.2112C157.594 12.4922 156.966 13.2971 156.738 13.9695L156.501 14.669L159.669 14.7043C161.412 14.7237 162.864 14.7127 162.897 14.6799C162.93 14.6472 162.859 14.3268 162.74 13.968C162.241 12.4653 160.736 11.6698 158.966 11.9729ZM107.943 12.7723C106.521 13.0541 105.485 14.2076 105.174 15.8563C104.803 17.8212 105.599 19.8004 107.06 20.5454C107.359 20.6982 107.97 20.8512 108.426 20.8879C111.002 21.0946 112.771 18.5949 112.154 15.6211C111.874 14.2719 110.752 13.0232 109.648 12.832C108.684 12.6653 108.513 12.6593 107.943 12.7723ZM83.9603 39.4351C85.136 39.4569 87.0601 39.4569 88.236 39.4351C89.4119 39.4133 88.4498 39.3955 86.0981 39.3955C83.7465 39.3955 82.7845 39.4133 83.9603 39.4351ZM151.591 41.6631C151.686 41.7011 151.799 41.6964 151.843 41.6527C151.887 41.609 151.809 41.578 151.67 41.5836C151.517 41.5899 151.486 41.6211 151.591 41.6631ZM229.344 41.6631C229.438 41.7011 229.552 41.6964 229.596 41.6527C229.639 41.609 229.562 41.578 229.423 41.5836C229.27 41.5899 229.239 41.6211 229.344 41.6631ZM113.868 44.8074C113.874 44.9607 113.905 44.9918 113.947 44.887C113.985 44.792 113.981 44.6785 113.937 44.6348C113.893 44.5911 113.862 44.6687 113.868 44.8074ZM232.322 49.4011C232.322 52.0784 232.34 53.1549 232.361 51.7935C232.382 50.432 232.382 48.2415 232.361 46.9258C232.339 45.6099 232.322 46.7238 232.322 49.4011ZM239.534 45.5201C239.534 45.8457 239.56 45.9789 239.591 45.8161C239.623 45.6532 239.623 45.3869 239.591 45.224C239.56 45.0612 239.534 45.1944 239.534 45.5201ZM113.868 46.3861C113.874 46.5394 113.905 46.5706 113.947 46.4657C113.985 46.3707 113.981 46.2572 113.937 46.2135C113.893 46.1698 113.862 46.2475 113.868 46.3861ZM174.81 48.2496C175.592 48.2728 176.835 48.2727 177.573 48.2493C178.311 48.2259 177.671 48.2068 176.152 48.2069C174.632 48.2071 174.029 48.2263 174.81 48.2496ZM193.156 48.2494C193.898 48.2728 195.111 48.2728 195.853 48.2494C196.595 48.226 195.988 48.2068 194.504 48.2068C193.021 48.2068 192.414 48.226 193.156 48.2494ZM84.7496 49.0392C86.2873 49.0602 88.8034 49.0602 90.341 49.0392C91.8787 49.0181 90.6206 49.0009 87.5453 49.0009C84.4701 49.0009 83.2121 49.0181 84.7496 49.0392ZM191.199 49.1709C191.035 49.3795 191.04 49.3841 191.248 49.2206C191.468 49.0487 191.537 48.9406 191.429 48.9406C191.402 48.9406 191.298 49.0443 191.199 49.1709ZM116.094 52.1478C116.094 52.1751 116.198 52.2787 116.324 52.3781C116.533 52.5416 116.538 52.537 116.374 52.3283C116.202 52.1092 116.094 52.0396 116.094 52.1478ZM125.944 52.9861C125.782 53.1935 125.786 53.1989 125.988 53.0406C126.195 52.8787 126.216 52.946 126.258 53.8958L126.303 54.9267L126.329 53.8413C126.356 52.7462 126.275 52.5651 125.944 52.9861ZM169.615 54.4245C169.71 54.4625 169.823 54.4578 169.867 54.4141C169.911 54.3704 169.833 54.3394 169.694 54.345C169.541 54.3514 169.51 54.3825 169.615 54.4245ZM242.052 59.0708C242.052 60.2648 242.072 60.7532 242.096 60.1562C242.12 59.5592 242.12 58.5825 242.096 57.9855C242.072 57.3884 242.052 57.8769 242.052 59.0708Z" fill="#B42424"/>
<path fill-rule="evenodd" clip-rule="evenodd" d="M136.026 28.5951C134.86 29.1391 133.986 30.4715 133.986 31.7061C133.986 32.8682 134.813 34.2028 135.885 34.7721C136.645 35.1756 138.3 35.1762 139.058 34.7732C140.191 34.1718 140.839 33.1957 140.933 31.9503C141.13 29.3404 138.411 27.4817 136.026 28.5951ZM213.844 28.559C213.117 28.8876 212.465 29.4959 212.092 30.1932C211.717 30.8953 211.695 32.4752 212.052 33.1533C212.39 33.7952 213.026 34.4411 213.647 34.7741C214.395 35.1755 216.056 35.1755 216.804 34.7741C218.888 33.6569 219.341 30.9157 217.711 29.2862C216.751 28.3264 215.061 28.0086 213.844 28.559ZM75.8364 42.231V54.2031H84.4537H93.0709V51.6391V49.0751L87.5125 49.0407L81.954 49.0064L81.918 46.8028L81.8819 44.5991H86.1608H90.4397V42.0337V39.4682H86.164H81.8882V37.429V35.3898H87.2822H92.6762V32.8244V30.2589H84.2563H75.8364V42.231ZM104.136 36.8396C103.237 37.0288 101.964 37.6806 101.303 38.2897L100.701 38.844V37.9062V36.9686H97.8729H95.0443V45.5884V54.2083L97.84 54.1728L100.636 54.1373L100.701 48.8748L100.767 43.6124L101.086 43.0551C102.25 41.0237 105.373 41.2581 106.286 43.4456C106.459 43.8571 106.49 44.7307 106.49 49.068V54.2031H109.319H112.147L112.143 48.7104C112.139 42.9135 112.068 41.81 111.619 40.6117C111.013 38.9914 109.483 37.5189 107.891 37.023C107.087 36.7724 104.951 36.6682 104.136 36.8396ZM119.833 36.9004C117.033 37.5095 114.893 39.7778 114.182 42.8888C113.853 44.3301 113.879 47.0978 114.236 48.4482C115.186 52.0498 117.62 54.0857 121.357 54.4057C123.024 54.5483 125.009 53.9664 125.82 53.0978C125.995 52.9098 126.195 52.7559 126.265 52.7559C126.341 52.7559 126.366 53.2641 126.329 54.0386C126.262 55.4099 126.1 55.8813 125.503 56.4396L125.151 56.7685L120.787 56.8343L116.423 56.9001L116.387 59.0495L116.351 61.1989L121.583 61.1409C127.22 61.0783 127.433 61.0546 128.93 60.322C130.383 59.6115 131.507 58.0037 131.756 56.2825C131.822 55.8263 131.877 51.2938 131.879 46.2107L131.881 36.9686H129.053H126.224V37.651V38.3334L125.863 37.9943C124.674 36.8805 122.084 36.4107 119.833 36.9004ZM152.056 36.8923C151.084 37.128 149.971 37.7062 149.348 38.2985C149.052 38.5801 148.79 38.8104 148.766 38.8104C148.741 38.8104 148.721 38.396 148.721 37.8895V36.9686H145.892H143.062L143.096 45.5529L143.13 54.1373L145.926 54.1728L148.721 54.2083L148.724 49.1077C148.727 44.2582 148.74 43.9779 148.995 43.4151C149.523 42.2513 150.384 41.6813 151.631 41.6696C153.104 41.6557 154.236 42.595 154.509 44.0579C154.582 44.45 154.642 46.8741 154.642 49.4848V54.2031H157.404H160.167L160.165 48.3157C160.163 41.9966 160.131 41.6202 159.464 40.1172C158.335 37.5726 155.085 36.1576 152.056 36.8923ZM167.995 36.9215C165.105 37.5323 162.882 39.6931 161.924 42.823C161.739 43.4273 161.682 44.0442 161.681 45.4542C161.68 47.1336 161.714 47.3989 162.062 48.4611C163.005 51.3402 165.271 53.4655 168.127 54.15C169.332 54.4391 171.633 54.4384 172.863 54.1486C175.667 53.4876 177.888 51.5053 178.654 48.9797C178.76 48.6325 178.847 48.3337 178.847 48.3157C178.848 48.2977 177.645 48.2828 176.174 48.2828H173.499L173.181 48.7762C172.696 49.5283 171.866 49.8823 170.588 49.8823C169.475 49.8823 168.84 49.6912 168.114 49.1376C167.654 48.7863 167.008 47.6197 167.008 47.1388V46.8356H172.946H178.883L178.818 45.0925C178.765 43.6359 178.692 43.1659 178.379 42.2342C177.94 40.9259 176.994 39.4428 176.113 38.679C175.26 37.9405 173.589 37.1484 172.375 36.907C171.12 36.6576 169.214 36.6639 167.995 36.9215ZM186.348 36.9019C185.097 37.1825 183.492 38.0226 182.636 38.8458C180.684 40.7207 179.629 43.8421 180.002 46.633C180.509 50.4223 182.774 53.1073 186.288 54.0858C187.506 54.4249 189.76 54.4879 190.952 54.2162C192.8 53.7951 194.265 52.9949 195.368 51.8031C196.119 50.9926 196.894 49.5828 197.07 48.7104L197.157 48.2828H194.449C192.158 48.2828 191.742 48.3124 191.742 48.4758C191.742 48.817 190.847 49.5813 190.263 49.7389C189.537 49.9347 188.235 49.9251 187.546 49.7188C186.527 49.4134 185.607 48.3766 185.367 47.2632L185.274 46.8356H191.197H197.12L197.21 46.2353C197.259 45.9051 197.259 45.2095 197.21 44.6895C196.843 40.8401 194.901 38.1883 191.686 37.1481C190.348 36.7152 187.72 36.5939 186.348 36.9019ZM229.733 36.91C228.739 37.151 227.865 37.6061 227.099 38.2817L226.474 38.8328V37.9007V36.9686H223.645H220.817V45.5858V54.2031H223.645H226.474L226.475 49.1708C226.475 46.0654 226.528 43.9484 226.613 43.6417C226.776 43.055 227.401 42.3035 227.973 42.0047C229.445 41.2371 231.148 41.7448 231.949 43.1903L232.328 43.8755L232.371 49.0393L232.413 54.2031H235.166H237.92L237.917 48.3815C237.915 41.9568 237.868 41.4552 237.128 39.9901C235.839 37.4371 232.793 36.1683 229.733 36.91ZM245.314 36.9715C242.631 37.6744 240.738 39.5995 239.948 42.4283C239.613 43.6278 239.544 46.6583 239.821 48.0407C240.431 51.0891 242.512 53.4305 245.221 54.1181C247.669 54.739 249.905 54.3903 251.482 53.1416L251.997 52.7338V53.739C251.997 55.1866 251.803 55.8199 251.192 56.3722L250.68 56.8343H246.405H242.13V59.0167V61.1992L247.293 61.1429C251.993 61.0916 252.536 61.0628 253.34 60.8212C255.273 60.2408 256.613 59.0115 257.23 57.2526C257.422 56.7073 257.451 55.5131 257.489 46.8028L257.532 36.9686H254.698H251.865V37.651V38.3334L251.503 37.9893C251.016 37.5261 249.979 37.0288 249.129 36.8512C248.084 36.6327 246.404 36.6857 245.314 36.9715ZM134.644 45.5858V54.2031H137.473H140.301V45.5858V36.9686H137.473H134.644V45.5858ZM198.846 45.5858V54.2031H201.675H204.503V49.2935C204.503 43.8571 204.546 43.5027 205.312 42.5758C206.007 41.7354 206.522 41.5794 208.614 41.5761L210.423 41.5732V39.2573V36.9415L208.812 36.9879C207.365 37.0296 207.123 37.072 206.449 37.4031C205.719 37.7619 205.159 38.3254 204.724 39.1393C204.518 39.5252 204.514 39.5055 204.508 38.2513L204.503 36.9686H201.675H198.846V45.5858ZM212.397 45.5858V54.2031H215.225H218.054V45.5858V36.9686H215.225H212.397V45.5858ZM168.916 40.8111C167.98 41.1381 167.356 41.8817 167.034 43.0533L166.898 43.5466H170.127H173.356L173.275 43.1414C173.061 42.0727 172.183 41.0497 171.26 40.7933C170.634 40.6194 169.438 40.6283 168.916 40.8111ZM187.219 40.8455C186.501 41.1014 185.865 41.7696 185.558 42.591C185.414 42.9772 185.295 43.3503 185.295 43.4201C185.295 43.4977 186.536 43.5466 188.505 43.5466H191.714L191.592 42.9875C191.294 41.6153 190.024 40.6474 188.536 40.6581C188.092 40.6612 187.5 40.7455 187.219 40.8455ZM121.681 41.6431C120.878 41.9401 120.23 42.5477 119.822 43.3849C119.494 44.0611 119.455 44.2807 119.452 45.52C119.449 46.6953 119.495 47.004 119.76 47.5891C120.606 49.4613 122.727 50.1948 124.596 49.2614C125.885 48.6172 126.521 47.4053 126.526 45.5858C126.531 43.813 125.831 42.4428 124.599 41.8109C123.896 41.4508 122.428 41.3664 121.681 41.6431ZM247.338 41.6486C246.502 41.955 245.988 42.4403 245.543 43.3428C244.547 45.3677 245.058 47.9827 246.668 49.0999C248.079 50.0782 250.347 49.7381 251.353 48.3973C252.329 47.098 252.502 44.7792 251.735 43.2906C250.958 41.7842 248.982 41.0463 247.338 41.6486Z" fill="#241C1C"/>
</svg>
