<svg version="1.1" id="Layer_1" xmlns="http://www.w3.org/2000/svg" xmlns:xlink="http://www.w3.org/1999/xlink" x="0px" y="0px"
	 width="100%" viewBox="0 0 158 69" enable-background="new 0 0 158 69" xml:space="preserve">
<path fill="#000000" opacity="1.000000" stroke="none" 
	d="
M159.000000,47.000000 
	C159.000000,54.659225 159.000000,62.318451 159.000000,69.983261 
	C106.391891,69.988838 53.783787,69.988838 1.087839,69.988838 
	C1.087839,47.081184 1.087839,24.161917 1.087839,1.121325 
	C53.666492,1.121325 106.333199,1.121325 159.000000,1.121325 
	C159.000000,15.089900 159.000000,29.076292 158.670593,43.656685 
	C157.222946,44.661095 155.872833,45.693382 155.025375,45.377434 
	C150.668411,43.753082 148.447739,46.584545 146.435181,49.386051 
	C145.378799,50.856544 145.148163,52.920231 144.723160,54.184792 
	C143.652878,52.424904 142.874420,49.532837 141.358261,49.072975 
	C139.590591,48.536827 137.212448,50.297066 135.033813,50.737297 
	C133.452240,51.056881 130.512665,51.319534 130.319916,50.805149 
	C128.619873,46.268520 125.122955,48.051743 122.333702,48.486198 
	C121.106613,48.677330 119.435242,50.436813 119.274948,51.656322 
	C119.146896,52.630592 121.001251,53.865440 122.025696,55.042053 
	C117.784927,60.316322 117.753777,61.298569 121.916107,63.943512 
	C121.898483,63.919605 121.854172,63.880039 121.825439,64.181160 
	C121.850273,64.978081 121.816788,65.877220 121.970200,65.910316 
	C125.298683,66.628624 128.630478,67.378838 132.000443,67.838379 
	C133.773026,68.080086 136.355347,68.525490 137.299606,67.591934 
	C140.637833,64.291512 144.603622,65.288399 148.454910,64.937157 
	C152.174652,64.597923 155.098663,63.206459 155.025925,58.596691 
	C154.943283,53.358418 151.217072,55.495270 148.528854,55.608646 
	C150.682968,53.555164 153.495560,52.058712 154.256744,49.853992 
	C155.249268,46.979282 156.791458,46.894550 159.000000,47.000000 
M89.747108,42.953056 
	C95.545471,42.958557 100.851959,40.985073 103.949379,36.259094 
	C106.840889,31.847279 108.292419,26.491697 110.333771,21.655767 
	C113.240784,27.404999 119.031273,28.279623 125.454475,28.043425 
	C131.105759,27.835617 136.771255,27.966627 142.429459,28.034132 
	C143.589493,28.047972 144.744965,28.443968 145.902542,28.663809 
	C145.932877,29.171297 145.963226,29.678787 145.993561,30.186275 
	C144.641190,30.456993 143.290878,30.949266 141.936081,30.961988 
	C133.947617,31.037001 125.957954,30.970568 117.969009,31.012402 
	C113.020081,31.038313 109.651237,33.339020 110.161072,36.651329 
	C110.802208,40.816689 113.855667,42.066654 117.797028,42.025429 
	C126.284584,41.936646 134.774490,42.070202 143.261948,41.977119 
	C151.387894,41.888004 156.973541,36.746780 156.996002,29.544106 
	C157.018478,22.337036 151.436996,17.144247 143.350098,17.022114 
	C136.860367,16.924105 130.367432,17.046629 123.877258,16.964680 
	C122.369751,16.945648 120.867706,16.493345 119.363152,16.240406 
	C119.359039,15.770674 119.354935,15.300942 119.350822,14.831210 
	C120.981773,14.554246 122.610558,14.053602 124.244026,14.037824 
	C132.731735,13.955840 141.222061,13.904821 149.708481,14.036194 
	C153.782761,14.099264 155.692520,11.635178 155.755280,8.315995 
	C155.817520,5.025331 153.340225,3.859145 149.917831,3.929009 
	C139.935547,4.132787 129.937286,3.767724 119.966064,4.157380 
	C117.306007,4.261330 113.884712,5.601699 112.303024,7.571146 
	C110.109146,10.302876 109.322662,14.164901 108.261375,16.745897 
	C104.509613,7.146490 97.282410,1.735456 84.119141,3.052254 
	C83.454414,3.036371 82.783081,3.075330 82.125954,2.996293 
	C73.690147,1.981660 67.992371,6.358368 64.537704,13.224839 
	C61.016743,20.223055 62.681038,31.909908 68.183601,36.990181 
	C74.398697,42.728317 81.739189,41.917324 89.747108,42.953056 
M36.524532,14.000000 
	C49.543423,14.000000 49.543423,14.000000 50.696598,16.300468 
	C50.428059,16.482046 50.161354,16.819260 49.890709,16.822453 
	C43.061192,16.902977 36.231094,17.002005 29.401459,16.980947 
	C24.939152,16.967188 20.684309,17.501913 16.111805,15.408137 
	C10.236979,12.718022 4.452466,17.418938 5.151644,23.881880 
	C5.614752,28.162668 7.542562,32.280117 8.761368,36.486130 
	C9.354528,38.533089 9.575579,40.730659 10.453298,42.635033 
	C10.919905,43.647430 12.424325,44.747601 13.468107,44.755352 
	C14.362289,44.761990 15.775724,43.421635 16.078058,42.412834 
	C17.246784,38.513153 17.824150,34.425934 19.140718,30.586515 
	C19.595316,29.260805 21.483219,27.709383 22.854723,27.563751 
	C25.760744,27.255178 28.815546,28.263977 31.705027,27.901363 
	C37.236244,27.207224 40.983143,29.015808 43.093567,34.215324 
	C43.393452,34.954170 44.119129,35.509838 44.583412,36.193947 
	C48.269962,41.625984 54.320122,43.425827 60.869328,40.949245 
	C58.129311,36.710075 55.401249,32.489395 52.504856,28.008291 
	C54.259693,27.023123 55.579906,26.408327 56.763374,25.594635 
	C60.858971,22.778711 62.693382,17.297791 61.204914,12.566970 
	C59.137180,5.995070 56.650192,4.019494 50.324455,4.004752 
	C42.658630,3.986886 34.992401,4.043669 27.327019,3.983044 
	C24.211683,3.958404 22.083603,4.975525 22.035391,8.416198 
	C21.988737,11.745713 23.701178,13.738426 27.045183,13.946548 
	C29.867636,14.122209 32.709011,13.993815 36.524532,14.000000 
M76.088921,53.068268 
	C72.961876,53.428127 69.834831,53.787987 66.471481,54.175041 
	C66.471481,56.136089 66.471481,58.909615 66.471481,61.683140 
	C66.744957,61.720581 67.018425,61.758026 67.291901,61.795467 
	C67.692543,60.740307 68.093178,59.685146 68.530563,58.533218 
	C72.699440,63.455688 91.039665,63.174412 94.344467,57.926014 
	C94.778534,59.373283 95.126373,60.533062 95.252319,60.952999 
	C97.364754,61.290970 99.029701,61.572800 100.699631,61.821098 
	C103.604843,62.253052 106.185501,62.222404 106.003235,58.148022 
	C105.937103,56.669601 105.992599,55.185741 105.992599,52.360588 
	C101.485733,53.119556 97.485382,53.793228 92.909515,54.563816 
	C92.977875,54.641716 92.159340,53.708965 91.393066,52.835785 
	C88.563522,54.736618 92.100517,60.024872 86.221252,60.032871 
	C87.440193,57.469177 88.307762,55.644497 89.579071,52.970669 
	C84.715981,52.970669 80.767624,52.970669 76.088921,53.068268 
M20.423122,10.785872 
	C21.438868,4.712417 18.957956,2.601809 11.277299,3.005165 
	C6.906013,3.234727 4.620566,7.620276 6.910565,11.384498 
	C9.309874,15.328396 16.419891,15.194983 20.423122,10.785872 
M49.033710,54.932446 
	C49.323608,57.259842 49.613506,59.587242 49.903400,61.914639 
	C50.388493,61.874855 50.873585,61.835072 51.358673,61.795288 
	C51.808819,60.577896 52.258961,59.360504 53.181244,56.866230 
	C54.900208,66.864456 61.745232,56.949703 64.459869,62.071144 
	C64.876274,61.701725 65.292671,61.332306 65.709076,60.962887 
	C64.445679,58.361908 63.182278,55.760933 61.918888,53.159958 
	C60.576183,54.918949 59.241325,56.684086 57.877655,58.426674 
	C57.752308,58.586853 57.443027,58.603096 57.223389,58.684605 
	C57.009075,56.798290 56.799133,54.950485 56.453056,51.904446 
	C54.744511,53.793537 53.894890,54.732937 53.711746,54.935429 
	C51.807903,54.594624 50.467293,54.354641 49.033710,54.932446 
M111.725403,58.570057 
	C111.151489,58.021832 110.351357,57.574379 110.052567,56.903603 
	C109.495743,55.653572 109.230591,54.273621 108.844040,52.947742 
	C108.133575,53.122543 107.423119,53.297348 106.712654,53.472153 
	C107.232803,56.157703 107.533752,58.924549 108.472183,61.454990 
	C108.644096,61.918571 112.595940,61.822418 112.773003,61.298542 
	C113.609528,58.823444 113.740768,56.109974 114.123444,53.481480 
	C113.499283,53.427193 112.875122,53.372906 112.250961,53.318619 
	C112.142601,54.824215 112.034233,56.329811 111.725403,58.570057 
z"/>
<path fill="#004EA2" opacity="1.000000" stroke="none" 
	d="
M159.000000,46.625000 
	C156.791458,46.894550 155.249268,46.979282 154.256744,49.853992 
	C153.495560,52.058712 150.682968,53.555164 148.528854,55.608646 
	C151.217072,55.495270 154.943283,53.358418 155.025925,58.596691 
	C155.098663,63.206459 152.174652,64.597923 148.454910,64.937157 
	C144.603622,65.288399 140.637833,64.291512 137.299606,67.591934 
	C136.355347,68.525490 133.773026,68.080086 132.000443,67.838379 
	C128.630478,67.378838 125.298683,66.628624 121.970200,65.910316 
	C121.816788,65.877220 121.850273,64.978081 122.284836,64.226883 
	C127.516342,64.244850 132.259720,64.518219 137.003082,64.791588 
	C137.023483,64.327095 137.043869,63.862598 137.064255,63.398102 
	C136.041626,63.067253 134.538467,63.053867 134.075577,62.353218 
	C131.385071,58.280773 128.619415,59.608818 125.623734,61.846710 
	C124.495361,62.689651 123.169533,63.268288 121.933723,63.967415 
	C117.753777,61.298569 117.784927,60.316322 122.025696,55.042053 
	C121.001251,53.865440 119.146896,52.630592 119.274948,51.656322 
	C119.435242,50.436813 121.106613,48.677330 122.333702,48.486198 
	C125.122955,48.051743 128.619873,46.268520 130.319916,50.805149 
	C130.512665,51.319534 133.452240,51.056881 135.033813,50.737297 
	C137.212448,50.297066 139.590591,48.536827 141.358261,49.072975 
	C142.874420,49.532837 143.652878,52.424904 144.723160,54.184792 
	C145.148163,52.920231 145.378799,50.856544 146.435181,49.386051 
	C148.447739,46.584545 150.668411,43.753082 155.025375,45.377434 
	C155.872833,45.693382 157.222946,44.661095 158.670593,44.125343 
	C159.000000,44.750000 159.000000,45.500000 159.000000,46.625000 
M140.848434,61.042835 
	C146.911865,63.251781 150.685883,62.354229 151.613159,57.884460 
	C147.979034,58.776184 144.591232,59.607468 140.848434,61.042835 
z"/>
<path fill="#004FA2" opacity="1.000000" stroke="none" 
	d="
M85.017723,3.167623 
	C97.282410,1.735456 104.509613,7.146490 108.261375,16.745897 
	C109.322662,14.164901 110.109146,10.302876 112.303024,7.571146 
	C113.884712,5.601699 117.306007,4.261330 119.966064,4.157380 
	C129.937286,3.767724 139.935547,4.132787 149.917831,3.929009 
	C153.340225,3.859145 155.817520,5.025331 155.755280,8.315995 
	C155.692520,11.635178 153.782761,14.099264 149.708481,14.036194 
	C141.222061,13.904821 132.731735,13.955840 124.244026,14.037824 
	C122.610558,14.053602 120.981773,14.554246 119.350822,14.831210 
	C119.354935,15.300942 119.359039,15.770674 119.363152,16.240406 
	C120.867706,16.493345 122.369751,16.945648 123.877258,16.964680 
	C130.367432,17.046629 136.860367,16.924105 143.350098,17.022114 
	C151.436996,17.144247 157.018478,22.337036 156.996002,29.544106 
	C156.973541,36.746780 151.387894,41.888004 143.261948,41.977119 
	C134.774490,42.070202 126.284584,41.936646 117.797028,42.025429 
	C113.855667,42.066654 110.802208,40.816689 110.161072,36.651329 
	C109.651237,33.339020 113.020081,31.038313 117.969009,31.012402 
	C125.957954,30.970568 133.947617,31.037001 141.936081,30.961988 
	C143.290878,30.949266 144.641190,30.456993 145.993561,30.186275 
	C145.963226,29.678787 145.932877,29.171297 145.902542,28.663809 
	C144.744965,28.443968 143.589493,28.047972 142.429459,28.034132 
	C136.771255,27.966627 131.105759,27.835617 125.454475,28.043425 
	C119.031273,28.279623 113.240784,27.404999 110.333771,21.655767 
	C108.292419,26.491697 106.840889,31.847279 103.949379,36.259094 
	C100.851959,40.985073 95.545471,42.958557 89.067947,42.686958 
	C87.038521,41.818027 85.703400,41.178181 84.335449,40.618542 
	C77.062172,37.642960 73.254593,32.009792 72.218575,24.441391 
	C71.287643,17.640730 78.360794,11.987060 84.899429,14.415259 
	C83.774506,18.264116 82.349976,21.717804 81.851898,25.300295 
	C81.615700,26.999237 82.683273,29.503916 84.017097,30.613220 
	C85.241844,31.631815 87.617310,31.266785 89.846680,31.332390 
	C99.104736,27.528337 101.158104,23.192184 98.133652,15.192240 
	C95.754692,8.899682 90.974739,5.445125 85.017723,3.167623 
z"/>
<path fill="#0A828A" opacity="1.000000" stroke="none" 
	d="
M36.033272,14.000000 
	C32.709011,13.993815 29.867636,14.122209 27.045183,13.946548 
	C23.701178,13.738426 21.988737,11.745713 22.035391,8.416198 
	C22.083603,4.975525 24.211683,3.958404 27.327019,3.983044 
	C34.992401,4.043669 42.658630,3.986886 50.324455,4.004752 
	C56.650192,4.019494 59.137180,5.995070 61.204914,12.566970 
	C62.693382,17.297791 60.858971,22.778711 56.763374,25.594635 
	C55.579906,26.408327 54.259693,27.023123 52.504856,28.008291 
	C55.401249,32.489395 58.129311,36.710075 60.869328,40.949245 
	C54.320122,43.425827 48.269962,41.625984 44.583412,36.193947 
	C44.119129,35.509838 43.393452,34.954170 43.093567,34.215324 
	C40.983143,29.015808 37.236244,27.207224 31.705027,27.901363 
	C28.815546,28.263977 25.760744,27.255178 22.854723,27.563751 
	C21.483219,27.709383 19.595316,29.260805 19.140718,30.586515 
	C17.824150,34.425934 17.246784,38.513153 16.078058,42.412834 
	C15.775724,43.421635 14.362289,44.761990 13.468107,44.755352 
	C12.424325,44.747601 10.919905,43.647430 10.453298,42.635033 
	C9.575579,40.730659 9.354528,38.533089 8.761368,36.486130 
	C7.542562,32.280117 5.614752,28.162668 5.151644,23.881880 
	C4.452466,17.418938 10.236979,12.718022 16.111805,15.408137 
	C20.684309,17.501913 24.939152,16.967188 29.401459,16.980947 
	C36.231094,17.002005 43.061192,16.902977 49.890709,16.822453 
	C50.161354,16.819260 50.428059,16.482046 50.695236,16.298454 
	C49.543423,14.000000 49.543423,14.000000 36.033272,14.000000 
z"/>
<path fill="#0B828B" opacity="1.000000" stroke="none" 
	d="
M84.568436,3.109939 
	C90.974739,5.445125 95.754692,8.899682 98.133652,15.192240 
	C101.158104,23.192184 99.104736,27.528337 89.600021,31.026402 
	C89.318871,24.893778 88.405838,19.183744 84.979958,14.072939 
	C78.360794,11.987060 71.287643,17.640730 72.218575,24.441391 
	C73.254593,32.009792 77.062172,37.642960 84.335449,40.618542 
	C85.703400,41.178181 87.038521,41.818027 88.653419,42.625530 
	C81.739189,41.917324 74.398697,42.728317 68.183601,36.990181 
	C62.681038,31.909908 61.016743,20.223055 64.537704,13.224839 
	C67.992371,6.358368 73.690147,1.981660 82.125954,2.996293 
	C82.783081,3.075330 83.454414,3.036371 84.568436,3.109939 
z"/>
<path fill="#004EA2" opacity="1.000000" stroke="none" 
	d="
M76.454094,53.019470 
	C80.767624,52.970669 84.715981,52.970669 89.579071,52.970669 
	C88.307762,55.644497 87.440193,57.469177 86.221252,60.032871 
	C92.100517,60.024872 88.563522,54.736618 91.393066,52.835785 
	C92.159340,53.708965 92.977875,54.641716 92.909515,54.563816 
	C97.485382,53.793228 101.485733,53.119556 105.992599,52.360588 
	C105.992599,55.185741 105.937103,56.669601 106.003235,58.148022 
	C106.185501,62.222404 103.604843,62.253052 100.699631,61.821098 
	C99.029701,61.572800 97.364754,61.290970 95.252319,60.952999 
	C95.126373,60.533062 94.778534,59.373283 94.344467,57.926014 
	C91.039665,63.174412 72.699440,63.455688 68.530563,58.533218 
	C68.093178,59.685146 67.692543,60.740307 67.291901,61.795467 
	C67.018425,61.758026 66.744957,61.720581 66.471481,61.683140 
	C66.471481,58.909615 66.471481,56.136089 66.471481,54.175041 
	C69.834831,53.787987 72.961876,53.428127 76.454094,53.019470 
M80.468994,57.324451 
	C81.207191,57.923927 81.945389,58.523403 82.779022,59.200382 
	C83.460869,58.097515 84.188614,56.920403 85.556870,54.707275 
	C82.516777,54.957474 80.467636,54.946461 78.522743,55.391239 
	C77.906982,55.532055 77.167160,56.918224 77.220932,57.682640 
	C77.271996,58.408432 78.286865,59.066418 78.877922,59.754211 
	C79.290451,59.143642 79.702980,58.533073 80.468994,57.324451 
z"/>
<path fill="#004EA2" opacity="1.000000" stroke="none" 
	d="
M20.063206,10.965163 
	C16.419891,15.194983 9.309874,15.328396 6.910565,11.384498 
	C4.620566,7.620276 6.906013,3.234727 11.277299,3.005165 
	C18.957956,2.601809 21.438868,4.712417 20.063206,10.965163 
z"/>
<path fill="#004EA2" opacity="1.000000" stroke="none" 
	d="
M49.080193,54.523552 
	C50.467293,54.354641 51.807903,54.594624 53.711746,54.935429 
	C53.894890,54.732937 54.744511,53.793537 56.453056,51.904446 
	C56.799133,54.950485 57.009075,56.798290 57.223389,58.684605 
	C57.443027,58.603096 57.752308,58.586853 57.877655,58.426674 
	C59.241325,56.684086 60.576183,54.918949 61.918884,53.159958 
	C63.182278,55.760933 64.445679,58.361908 65.709076,60.962887 
	C65.292671,61.332306 64.876274,61.701725 64.459869,62.071144 
	C61.745232,56.949703 54.900208,66.864456 53.181244,56.866230 
	C52.258961,59.360504 51.808819,60.577896 51.358673,61.795288 
	C50.873585,61.835072 50.388493,61.874855 49.903400,61.914639 
	C49.613506,59.587242 49.323608,57.259842 49.080193,54.523552 
z"/>
<path fill="#004EA2" opacity="1.000000" stroke="none" 
	d="
M111.825638,58.202732 
	C112.034233,56.329811 112.142601,54.824215 112.250961,53.318619 
	C112.875122,53.372906 113.499283,53.427193 114.123444,53.481480 
	C113.740768,56.109974 113.609528,58.823444 112.773003,61.298542 
	C112.595940,61.822418 108.644096,61.918571 108.472183,61.454990 
	C107.533752,58.924549 107.232803,56.157703 106.712654,53.472153 
	C107.423119,53.297348 108.133575,53.122543 108.844040,52.947742 
	C109.230591,54.273621 109.495743,55.653572 110.052567,56.903603 
	C110.351357,57.574379 111.151489,58.021832 111.825638,58.202732 
z"/>
<path fill="#000000" opacity="1.000000" stroke="none" 
	d="
M121.916107,63.943512 
	C123.169533,63.268288 124.495361,62.689651 125.623734,61.846710 
	C128.619415,59.608818 131.385071,58.280773 134.075577,62.353218 
	C134.538467,63.053867 136.041626,63.067253 137.064255,63.398102 
	C137.043869,63.862598 137.023483,64.327095 137.003082,64.791588 
	C132.259720,64.518219 127.516342,64.244850 122.313568,63.925762 
	C121.854172,63.880039 121.898483,63.919605 121.916107,63.943512 
z"/>
<path fill="#000000" opacity="1.000000" stroke="none" 
	d="
M141.025925,60.740791 
	C144.591232,59.607468 147.979034,58.776184 151.613159,57.884460 
	C150.685883,62.354229 146.911865,63.251781 141.025925,60.740791 
z"/>
<path fill="#F0F5F9" opacity="1.000000" stroke="none" 
	d="
M84.899429,14.415259 
	C88.405838,19.183744 89.318871,24.893778 89.239143,31.205359 
	C87.617310,31.266785 85.241844,31.631815 84.017097,30.613220 
	C82.683273,29.503916 81.615700,26.999237 81.851898,25.300295 
	C82.349976,21.717804 83.774506,18.264116 84.899429,14.415259 
z"/>
<path fill="#000000" opacity="1.000000" stroke="none" 
	d="
M80.292252,57.623478 
	C79.702980,58.533073 79.290451,59.143642 78.877930,59.754211 
	C78.286865,59.066418 77.271996,58.408432 77.220932,57.682640 
	C77.167160,56.918224 77.906982,55.532055 78.522743,55.391239 
	C80.467636,54.946461 82.516777,54.957474 85.556870,54.707275 
	C84.188614,56.920403 83.460869,58.097515 82.779022,59.200382 
	C81.945389,58.523403 81.207191,57.923927 80.292252,57.623478 
z"/>
</svg>